<svg xmlns="http://www.w3.org/2000/svg" width="206.3" height="206.3" viewBox="0 0 206.3 206.3"><path fill="#fff" d="M206.3 103.1c0 57-46.2 103.1-103.1 103.1C46.2 206.3 0 160.1 0 103.1 0 46.2 46.2 0 103.1 0c57 0 103.2 46.2 103.2 103.1"></path><path d="M149.5 50.3c-5.7.3-10 4.3-13.3 12.4l-31.9 77.6-37.1-81.7c-2.4-5.3-5.7-7.9-10.4-8.3v-3.7H107v3.7c-4.7.1-7 1.6-7 4.9 0 1.3.5 3 1.3 5.3L116.1 99l14.8-36.8c.8-2.1 1.2-4.1 1.2-5.8 0-4-2.4-5.9-7.4-6.1v-3.7h24.9v3.7z"></path><path fill="#ffe700" d="M56.8 157h92.8v7.5H56.8z"></path></svg>
