<svg width="50" height="50" viewBox="0 0 50 50" fill="none" xmlns="http://www.w3.org/2000/svg"><circle cx="25" cy="25" r="25" fill="#FFFF80"/><g clip-path="url(#a)"><path d="m15.74 23.82.082.055c-.029-.017-.058-.032-.087-.05l.135-.178.123-.152-.13-.268c.078.037.115.055.153.071l.044-.017-.202-.494a.134.134 0 0 1-.004-.06l.027-.333.032.009.421-.686-.112-.219.209-.12-.104-.24c.01-.006.02-.015.03-.022l.097.053c.119-.242.236-.487.171-.786l.153-.053c-.008-.096-.023-.19-.023-.283 0-.022.041-.043.07-.07l-.133-.231.02-.044.08.044.59-.745c.058-.085-.219-.18-.024-.297l-.133-.23c.23-.094.364-.378.282-.603l.169-.03c.071-.067-.069-.305.14-.237.055-.081.112-.143.138-.216.017-.049-.002-.115-.018-.17-.013-.047-.042-.09-.08-.165.075.026.113.038.152.05-.005-.15-.077-.312.116-.393l-.1-.175c.073-.006.133-.012.191-.015.01 0 .028.015.027.014.122-.21.445-.275.4-.614l.176.106-.066-.192.02-.04a.775.775 0 0 1 .057.056c.061-.1.106-.186.162-.264.055-.077.11-.17.264-.093l-.178-.308c.01-.008.02-.015.03-.025.04.022.08.044.127.068-.002-.067-.035-.179.078-.073.046-.12.09-.228.145-.367.152-.01.319-.006.478-.033.05-.009.086-.1.113-.135.094-.002.166-.002.24-.005-.006-.055-.01-.111-.02-.193.124.085.187.047.236-.067.018-.043.093-.058.167-.06l.044-.139c.02.01.032.015.044.023.033.021.086.07.096.062.105-.083.228-.075.348-.103.126-.029.289-.036.372-.218.038-.083.251-.119.384-.112.19.012.378.123.564.116.256-.01.356.254.572.278.184.02.265.155.312.295.048.133.043.284.037.416.048.084.095.17.145.252.064.101.142.196.193.304.05.109.084.23.105.348.005.03-.063.075-.106.123.019.158.05.336.058.516a1.21 1.21 0 0 1-.04.333c-.005.025-.071.038-.132.066.062.329.3.632.273 1.012l-.08-.015c-.012.186-.026.374-.037.562-.002.048.006.097.007.146.002.026.013.06 0 .08-.1.175-.102.175-.005.327a26.26 26.26 0 0 1-.115-.035l.2.346c-.075.02-.13.036-.187.05.035.053.069.106.107.156.055.07.113.138.17.206l-.03.037-.099-.041c-.063.133-.13.27-.194.407l-.037-.02c-.058.13.192.258.007.383l.126.264-.027.023c-.035-.016-.07-.032-.084-.04-.03.051-.088.106-.088.159.003.077.047.155.076.237-.192.044-.098.196-.103.314-.001.058-.026.114-.03.171-.008.083-.007.167-.01.257-.014-.005-.044-.005-.061-.021-.09-.08-.11.006-.137.056a.347.347 0 0 0-.025.307c.032.076.074.147.123.24-.07.033-.13.063-.19.093.026.04.072.101.117.164l-.021.025-.113-.067-.179.2c-.006.007-.025.013-.024.018.024.246-.26.439-.108.707.01.016.001.062-.002.062-.215.018-.058.274-.216.346-.063.028-.091.147-.12.233-.023.075-.03.151-.134.149-.01 0-.019.047-.028.072a1 1 0 0 1-.096.211c.003.097.119.195-.013.306-.024.02.009.119.026.178.032.104.073.201-.07.258-.024.009-.01.094-.031.136a.23.23 0 0 1-.114.095c-.036.08-.023.18-.142.239-.047.024-.041.158-.06.247l-.168.007.023.15a.126.126 0 0 1-.019.025c-.043.043-.122.084-.122.128-.002.119-.039.164-.142.129-.068.067.079.235-.12.222.003.011.007.022.008.032.013.143.083.29-.051.417-.018.016.02.09.033.142l-.227.016c.001.131-.11.302-.117.317l-.18.25c-.086.034-.223.236-.245.453a8.062 8.062 0 0 1-.143-.024l-.066-.018c-.03.15-.06.3-.093.457l-.049-.02c-.03.084-.058.168-.096.28l-.157-.17-.046.002c.006.05.007.102.018.15.015.062.053.106-.05.148-.049.021-.05.162-.08.279l-.151.044.03.296-.03-.024-.352.412-.18.048c.14.17-.167.307.014.454-.085.014-.183.004-.235.047-.046.04-.042.139-.061.222l-.06-.025c-.003.004-.016.012-.015.017.035.136-.082.177-.148.251-.08.088-.245.082-.266.24 0 .007-.066.005-.127.01l.134.346a15.862 15.862 0 0 1-.116-.053c-.073.1-.163.191-.211.301-.066.147-.245.09-.313.232.033.084.129.172.053.311-.023.042.057.15.102.221.055.083.124.102.21.03.016-.014.069.015.102.023l.014-.146c.054.067.086.1.112.137.025.036.045.076.068.115l.018-.056.323.07-.002.088c.033-.07.068-.138.108-.22.126.275.367.14.518.098.116-.031.315-.091.365-.284.021-.083.127-.119.177-.17.137-.14.317-.077.457-.156.02-.012.067.022.1.037l-.012-.13.033-.032c.065.055.125.115.194.164.042.029.113.065.143.049.102-.057.19-.139.288-.205.028-.02.073-.013.109-.022.187-.045.304-.189.446-.302.229-.18.24-.166.347-.402.257.01.37-.042.426-.2.078-.018.209.105.232-.087.002-.02.143-.018.222-.027a1.456 1.456 0 0 1-.01-.04c.229-.16.514-.177.712-.398.127.073.128-.083.18-.147.042-.05.038-.137.145-.11.018.003.057-.077.09-.125.09.047.152.052.14-.094-.004-.059.061-.12.096-.184l-.09-.201.191.094c-.015-.088-.024-.16-.04-.255l.099.07.267-.404c.25.044.396-.17.522-.318.124-.144.128-.392.186-.605.032 0 .102 0 .183-.002-.027-.128-.082-.275.118-.3l-.114-.197.222-.015c.027-.051.037-.107.071-.131.06-.043.135-.065.201-.1.117-.061.21-.134.059-.326.107.055.16.08.259.13l-.117-.15c.175-.05.122-.325.344-.323.066-.14.217-.262.058-.459l.045-.016c.018.012.036.031.055.034.051.01.103.012.155.015 0-.048.013-.1-.001-.142-.03-.082-.077-.155.06-.177.02-.003.048-.061.045-.092-.014-.11.089-.16.113-.223.056-.143.329-.196.194-.38.08-.073.137-.134.202-.188.09-.075.025-.13-.007-.205-.044-.097-.06-.207-.081-.312-.021-.1-.035-.2-.052-.302-.058-.364-.274-.686-.295-1.059-.002-.03 0-.087.015-.092.187-.06.069-.165.033-.254-.031-.082-.123-.158-.011-.246.01-.008-.02-.068-.034-.102-.02-.053-.047-.106-.082-.187l.13.03c.019-.242.055-.48-.112-.707-.054-.074-.039-.198-.051-.28l.245-.457-.099-.172.108-.593.093.098c.002-.124.005-.2.005-.277l-.127.17c-.106-.395-.094-.458.08-.48l-.14-.192.139.005c.043-.194.088-.383.197-.558.045-.073 0-.204-.003-.322.22-.016.127-.286.25-.412.17-.172-.026-.366.021-.54.035-.059.094-.117.097-.177.005-.123.064-.122.153-.096.035-.066-.02-.241.163-.131.015-.133.043-.256.204-.271a.07.07 0 0 0 .041-.024c.11-.14.213-.287.329-.423.047-.057.118-.093.183-.133.107-.067.485.041.555.146.021.031.093.067.113.056.103-.065.147.005.22.062.15.118.33.198.477.32.083.067.198.22.173.271-.072.15.086.204.073.319l-.13.098c.008.016.02.032.028.048l.13-.087c.097.13.237.247.28.393.062.205.065.432.073.65.004.147-.067.292.017.443.024.044-.006.116-.01.176-.002.027-.008.058.002.08.029.07.064.136.115.24l-.136-.07c-.04.074-.067.16-.121.216-.068.068-.056.122-.028.203.024.074.011.162.014.244l-.047.003.066.114c.034.056.009.067-.028.11a1.6 1.6 0 0 0-.213.326c-.027.056-.01.138-.002.207.013.113.115.237-.07.309-.036.014-.026.13-.046.198-.046.159-.111.313-.14.473a.54.54 0 0 0 .105.472c-.145.006-.228.051-.279.16-.047.104-.108.2-.171.316l.136.288a8.686 8.686 0 0 1-.15-.049c-.009.031-.017.074-.034.113a5.44 5.44 0 0 1-.173.351.235.235 0 0 1-.116.093c-.038.094.021.244-.16.27-.016.003-.03.088-.027.134.005.09.085.191-.082.228-.032.007-.037.158-.04.242-.004.081.077.168-.078.216-.056.016-.07.174.028.258.05.042.093.09.136.14.165.19.125.404.076.618.201.07.275.247.275.417 0 .144.069.212.161.218.191.014.227.164.3.285.05.083.174.132.275.114.034-.005.078.021.111.044.04.027.07.067.108.099a.26.26 0 0 0 .043.028c.044-.032.083-.08.104-.073.156.055.377.077.447.19.132.212.31.173.48.21.006 0 .01.005.025.013l.023-.14.22.131.044-.139c.12.064.225.177.363.072.015-.01.077.045.135.08l.118-.148.509.23.084-.152c.142.036.276.072.42.11l.025-.158.12.05c.023-.055.033-.122.07-.159.027-.025.094-.005.163-.006l.103-.182c.105.06.192.08.325.009.118-.064.296-.018.464-.02l.012-.073.29-.104c.04-.124.022-.184.153-.14l.272-.201.097.077.2-.257c.061-.02.156-.05.25-.083.05-.017.098-.056.142-.051.063.006.092.018.109-.065.006-.033.107-.044.175-.069.005-.033.01-.085.022-.162l.116.097.08-.246.139.081.104-.21c.133.036.241-.036.366-.11.113-.067.289-.038.282-.253.038.015.07.027.092.034.055-.09.105-.176.161-.27l.12.07-.004-.29.121.086c.011-.016.022-.022.022-.03-.004-.094-.025-.193.125-.194.028 0 .05-.07.08-.102.052-.052.107-.1.161-.15l.033.03.027-.23.117.096c.054-.062-.041-.252.128-.204.049-.162.097-.324.152-.5l.1.011.044-.33c.13 0 .336-.23.343-.377.009-.004.016-.013.024-.011.02.003.041.011.087.026.074-.165.156-.338.228-.513a.24.24 0 0 0 .005-.145c-.017-.06-.055-.114-.108-.214l.142.068c.04-.083.067-.176.125-.246.054-.065.144-.098.206-.158.03-.028.042-.085.044-.13.004-.052-.014-.106-.024-.171.304.032.51.21.71.413.087-.159.18-.028.266-.032.194-.009.183.13.208.245.006.027-.035.066-.057.096-.008.011-.034.02-.033.023.057.171-.139.262-.125.42.002.023-.016.05-.027.073-.026.062-.083.127-.074.183.018.125-.053.139-.134.165l.045.162-.046-.016c-.033.068-.065.14-.103.205a.186.186 0 0 1-.093.076c-.026.18-.166.445-.238.449-.031.093-.053.181-.09.264-.046.1-.085.192-.028.309.016.033-.032.097-.054.146-.02.043-.055.08-.063.124-.023.133-.019.134-.153.128-.004.07-.008.14-.01.231l-.119-.09-.212.1c-.04.075-.102.198-.167.32l-.045-.015c.012.044.027.089.026.086l-.218.16c-.012.008-.027.025-.038.022-.212-.068-.229.138-.282.238a.35.35 0 0 1-.168.174.58.58 0 0 0-.296.299c-.02.045-.107.055-.152.094-.047.04-.079.097-.136.17l-.07-.017-.073.166-.024-.046-.416.123c-.042.093-.09.195-.116.25-.158.074-.33.099-.387.194-.083.143-.215.043-.297.12-.034.031-.087.04-.16.072l-.05-.042-.018.02c-.059.071-.035.246-.214.169-.016-.007-.078.037-.078.06-.001.237-.165.069-.205.09l-.22.229c-.118-.011-.494.232-.542.353-.092.013-.179.027-.264.036-.07.007-.142.008-.22.013l.01.117-.24-.162.019.135c-.262.09-.55.111-.73.363-.074.104-.24.091-.289.035-.08.012-.134.04-.168.023-.21-.103-.413-.184-.653-.097-.112.041-.249.012-.367.045-.057.015-.094.1-.139.15l-.621-.255.004.126c-.136-.037-.22-.151-.333-.009-.029.037-.19-.032-.304-.053-.002.01-.014.043-.029.089-.162-.06-.336-.099-.482-.187-.109-.066-.18-.193-.271-.293-.11-.12-.239-.103-.374-.06-.037.013-.086-.003-.14-.009.003.023.005.056.007.087l-.038-.001a16.425 16.425 0 0 1-.152-.202l-.022.034c-.08-.054-.162-.103-.236-.163-.052-.04-.088-.1-.138-.14-.063-.052-.18-.075-.08-.195.008-.01-.037-.073-.067-.1a6.838 6.838 0 0 0-.321-.275c-.05-.04-.11-.067-.166-.096-.18-.093-.24-.28-.343-.433-.058-.084-.104-.177-.168-.29l-.109.656-.104-.044c.005.153.023.294-.19.317-.048.005-.078.127-.123.188-.019.027-.058.042-.09.057-.02.01-.062.005-.069.02-.058.116-.108.237-.168.352-.024.046-.068.081-.102.122l-.04-.03c-.004.076-.007.15-.01.256a6.533 6.533 0 0 1-.14-.128c-.03.081-.05.157-.085.226-.005.011-.061-.005-.09-.007l-.22.45a1.848 1.848 0 0 0-.082-.018l.06.027c-.066.145-.13.292-.2.445l-.068-.006a.545.545 0 0 0 .034.032c-.046.076-.087.155-.137.229-.03.044-.07.08-.092.135-.063.041-.18-.01-.204.137-.005.02-.116.019-.184.03-.007.129-.072.121-.157.043l-.108.6a.315.315 0 0 1-.03-.014c-.029.06-.08.117-.083.176-.004.118-.056.13-.152.097l-.03.157c-.196-.023-.302.048-.265.178-.097.004-.205-.014-.186.15.002.017-.149.05-.248.081 0 0-.009.08-.034.084-.056.013-.12-.01-.187-.02l-.07.186-.104-.05-.119.185c-.044-.035-.086-.067-.123-.098-.027.212-.15.05-.236.056.048.227-.198.25-.251.341l-.404.118a5.456 5.456 0 0 0-.009.12l-.43.247.117.202c-.12-.008-.247-.108-.286.085-.004.025-.121.024-.2.04l-.012.103c-.104-.02-.22-.116-.265.058-.002.008-.019.017-.026.015-.182-.054-.213.094-.268.204-.155.02-.306.037-.454.066-.03.007-.049.069-.084.084-.055.032-.108.066-.163.093-.027.012-.067.026-.09.015-.15-.071-.305-.048-.471-.033a8.201 8.201 0 0 1-.024.128l-.042-.032-.175.193c-.068-.043-.149-.091-.234-.143l-.004.208a4.944 4.944 0 0 0-.07-.163 50.46 50.46 0 0 1-.363.025l.001.37c-.089-.067-.177-.15-.308-.02-.045.043-.181-.008-.3-.019l-.044.096-.63-.267c-.377-.003-.641.058-.935-.013-.365-.086-.458-.41-.655-.673-.109.151-.197.278-.286.402a.09.09 0 0 1-.036.026c-.272.104-.273.103-.376.354l-.435.178a5.34 5.34 0 0 1-.014.139l-.15-.077-.018.214c-.063 0-.127.002-.198.005l-.011.155-.192-.044c-.01.073 0 .166-.039.219-.046.065-.136.14-.206.138-.211-.002-.187.108-.129.253l-.296.087.277.188-.038.06-.138-.1c-.12.032-.097.257-.289.214-.016-.004-.056.103-.097.133-.048.028-.095.075-.145.079a.69.69 0 0 1-.282-.048l-.248.093c.017.043.036.092.057.141-.19-.089-.381-.066-.465.067-.086.138-.307.219-.148.467l-.054-.006-.1-.088-.059.2c-.09-.014-.155-.012-.21-.037-.1-.047-.243-.013-.294-.166-.01-.032-.069-.053-.108-.07-.08-.033-.153-.059-.146-.176.004-.058-.037-.124-.066-.182-.044-.09-.124-.169-.052-.285.016-.027-.02-.09-.037-.135-.024-.066-.053-.13-.063-.157.125-.072.222-.15.332-.184.08-.023.177.012.266.027.027.005.05.034.058.04.07-.116.136-.221.213-.345l-.046-.102c.15.038.226.001.27-.124l.183.067-.027-.178c.069.04.122.069.165.095l.222-.163c.023-.062-.034-.245.182-.237.035-.134.161-.08.236-.121.054-.03.068-.134.105-.22l.053.016c.042-.05.075-.093.11-.134.118-.14.235-.282.358-.416.05-.054.117-.089.175-.132.11-.02.229-.038.344-.065.098-.022.192-.054.319-.09.007-.064.028-.184.031-.305.004-.217.016-.24.22-.269.003-.032.006-.064.006-.097 0-.032-.002-.064-.005-.124l.127.067c.033-.06.056-.134.105-.184.048-.05.12-.075.185-.112-.03-.068-.053-.118-.067-.153.069-.019.148-.018.188-.057.062-.063.057-.148-.011-.223-.181-.196-.168-.466-.255-.698-.044-.117-.07-.226-.18-.319a.517.517 0 0 1-.17-.328c-.011-.162-.04-.33.045-.5a.4.4 0 0 0-.01-.389c-.051-.08-.091-.152-.03-.258.03-.05-.024-.152-.042-.243l.13-.002c-.04-.114-.066-.221-.116-.315-.078-.148-.067-.328.042-.414l-.038-.023c.035-.072.075-.142.101-.216a.242.242 0 0 0 .002-.131c-.024-.098-.067-.192-.08-.29-.03-.25-.074-.5.02-.749.063-.165.005-.363.164-.508.051-.046.025-.176.038-.266.02-.13.041-.26.065-.388.002-.012.032-.02.058-.035-.038-.034-.08-.061-.11-.098-.061-.08-.066-.125.017-.226.086-.107.075-.295.106-.448.009-.047.012-.097.024-.144a6.71 6.71 0 0 1 .075-.27c.025-.08.094-.18.069-.23-.14-.248-.022-.485.015-.748Zm2.845 4.546c.105-.01.24.109.239-.092.182-.04.107-.178.088-.304.13.062.22.06.253-.093.008-.033.065-.055.125-.103.012-.034-.047-.172.11-.13.057-.084-.063-.28.131-.231.05-.14.094-.27.148-.425l-.063-.123c.098-.01.233-.012.233-.025.011-.2.145-.105.235-.102-.002-.152-.033-.31.002-.447.027-.104.046-.181-.013-.276-.018-.028-.008-.11.011-.12a.505.505 0 0 0 .184-.14c.075-.091.162-.174.243-.26.011.011.023.02.034.032.066-.06-.059-.272.158-.198-.006-.162.021-.307.135-.421.053-.053.123-.093.165-.153.058-.085.152-.181 0-.293a22.67 22.67 0 0 1-.199.308l-.127-.221.031-.02.154.106c-.1-.147-.051-.175.024-.157l.16-.223-.122-.284.044-.023a.872.872 0 0 0 .063.044l.355-.41a13.93 13.93 0 0 0-.122-.242.39.39 0 0 0 .032-.024l.09.04c.042-.06.085-.116.125-.176.117-.177.19-.357.219-.584.033-.265.157-.517.213-.79a.356.356 0 0 0-.05-.293c-.006-.01.005-.031.007-.046.117.02.264-.156.2-.257-.084-.135-.026-.216.058-.302.086-.087.159-.169 0-.264-.02-.011-.022-.084-.01-.119.048-.12.1-.24.163-.353.014-.023.075-.02.157-.04-.023-.172-.007-.4-.09-.584-.086-.194-.145-.37-.106-.575.02-.1.027-.21.077-.29.042-.068.095-.15.063-.23-.018-.05-.042-.107-.033-.154.038-.218.084-.436.132-.652.006-.03.046-.05.064-.076a.518.518 0 0 0 .07-.132c.015-.046.013-.098.02-.15l-.162-.068a7.227 7.227 0 0 0-.135.1c-.017-.104-.045-.192-.042-.279.004-.116.089-.267.042-.34-.11-.173-.005-.327-.025-.488a1.732 1.732 0 0 0-.108-.45c-.054-.134-.226-.254-.089-.414-.093-.293-.241-.068-.367-.039a.652.652 0 0 1-.004.067l-.234.039c.025.07.047.13.073.207-.154-.066-.25-.022-.284.144l-.23-.082.01.14c-.184-.107-.204.042-.25.133-.178.007-.346.228-.524-.011l-.077-.003c-.034.096-.07.19-.103.286-.103.03.032.237-.058.321a8.69 8.69 0 0 1-.122-.103l.01.297-.038.006-.064-.253c-.057.401-.068.42-.262.483-.097.249-.184.48-.275.717l-.11-.045c-.024.064-.03.145-.07.168-.143.083-.143.222-.171.357a4.03 4.03 0 0 1-.118.45c-.006.02-.07.022-.108.034-.015.112-.04.232-.046.352-.003.12.014.24.023.373a2.325 2.325 0 0 0-.078-.05l-.066.126c-.056.105-.197.168-.133.333.012.028-.06.087-.092.133-.074-.078-.095.063-.155.035-.018.067-.05.132-.051.198 0 .057.07.134.05.166-.069.117-.018.197.047.29.018.025.003.074.003.129a4.23 4.23 0 0 1-.125-.076c-.007.044-.001.094-.023.126-.062.097-.148.18-.2.283-.077.147-.002.337-.122.485-.032.04.026.153.036.2-.052.067-.091.111-.123.16-.039.061-.072.127-.108.19l-.03-.015-.17.657.096.567c.015.09.034.18.054.28-.24-.013-.103.193-.196.297l-.094-.05c-.004.096-.006.18-.012.285l-.124-.098c.011.201-.004.418.045.618.034.138-.03.175-.102.235l.094.19a2.238 2.238 0 0 1-.128-.03c.022.08.061.145.053.2-.017.099-.062.193-.094.287-.013-.003-.063-.025-.1-.01-.102.04-.158.225-.108.325.044.088.106.173.126.268.027.126.02.26.027.389 0 .02.004.041-.002.06-.029.096-.06.19-.093.292 0 0-.033-.035-.06-.03a.305.305 0 0 0-.148.067c-.038.035-.055.091-.083.142.013.11.035.241.041.373.007.123.142.255-.01.372-.01.007-.009.032-.005.047.064.244.1.488.06.74-.02.125-.058.256.033.376.009.011-.017.045-.022.07-.013.064-.043.131-.034.194.019.133.057.262.088.4-.132.021-.135.086-.069.181.023.034.034.08.037.122.026.28-.047.577.15.83.023.028.004.088.02.125.019.04.052.091.087.1.153.038.186-.011.153-.213.094.017.286-.13.32-.221.022-.06.076-.107.116-.16.03-.108.032-.106.14-.165.015-.009.023-.036.03-.056l.079-.216.044.002.186-.427c.227.027.163-.185.225-.362.037.039.064.07.062.066.048-.103.066-.228.135-.274.1-.069.123-.15.15-.254.013-.063.068-.115.106-.178-.015-.026-.052-.082-.095-.148ZM29.18 18.9s.007.014.001.019c-.114.12-.145.312-.32.38-.025.01-.055.048-.054.073.001.363-.109.7-.194 1.046-.042.17-.044.357-.028.533.013.14.085.276.13.414l-.053-.01c-.036.037-.097.07-.1.11-.01.089.004.173-.11.208-.02.007-.027.095-.017.14.012.051.051.096.083.152-.12.102-.138.217-.063.358.031.06.02.139.036.207.03.126.066.251.1.378l.027-.015.115-.529.066.01c.018-.06.03-.115.048-.167.033-.094.083-.182.102-.278.014-.08-.202-.175.012-.247-.027-.132.095-.285-.065-.402-.013-.01.006-.068.012-.115l.093.058c.039-.053.073-.102.12-.164l-.075-.194.033-.023.079.054c.024-.035.054-.072.077-.115.056-.105.154-.198.03-.334-.155-.17-.08-.4-.126-.6-.02-.086.054-.192.09-.303l.192.003c-.004-.026-.02-.07-.01-.076.132-.084.072-.21.063-.322-.006-.07-.053-.141-.044-.206.022-.15-.07-.172-.168-.2l.03.171c-.034-.004-.067-.007-.112-.014Z" fill="#000"/></g><defs><clipPath id="a"><path fill="#fff" d="m4.21 23.59 28.58-16.5 10 17.32-28.58 16.5z"/></clipPath></defs></svg>